<svg width="284" height="64" viewBox="0 0 284 64" fill="none" xmlns="http://www.w3.org/2000/svg">
<g clip-path="url(#clip0_10_18)">
<path d="M0 64H1440V28.16C1404.02 28.16 1386.01 21.12 1368 14.08C1349.99 7.04 1331.98 0 1296 0C1260.02 0 1242.01 7.04 1224 14.08C1205.99 21.12 1187.98 28.16 1152 28.16C1116.02 28.16 1098.01 21.12 1080 14.08C1061.99 7.04 1043.98 0 1008 0C972.022 0 954.011 7.04 936 14.08C917.989 21.12 899.978 28.16 864 28.16C828.022 28.16 810.011 21.12 792 14.08C773.989 7.04 755.978 0 720 0C684.022 -3.73877e-06 666.011 7.04 648 14.08C629.989 21.12 611.978 28.16 576 28.16C540.022 28.16 522.011 21.12 504 14.08C485.989 7.04 467.978 3.73877e-06 432 0C396.023 -3.73877e-06 378.011 7.04 360 14.08C341.989 21.12 323.977 28.16 288 28.16C252.022 28.16 234.011 21.12 216 14.08C197.989 7.04 179.978 0 144 0C108.023 0 90.0113 7.04 72.0001 14.08C53.9888 21.12 35.9775 28.16 0 28.16V64Z" fill="#7BDEFF"/>
</g>
<defs>
<clipPath id="clip0_10_18">
<rect width="1440" height="64" fill="white"/>
</clipPath>
</defs>
</svg>
